<?xml version="1.0" standalone="no"?>
<!DOCTYPE svg PUBLIC "-//W3C//DTD SVG 20010904//EN"
 "http://www.w3.org/TR/2001/REC-SVG-20010904/DTD/svg10.dtd">
<svg version="1.0" xmlns="http://www.w3.org/2000/svg"
 width="1472.000000pt" height="801.000000pt" viewBox="0 0 1472.000000 801.000000"
 preserveAspectRatio="xMidYMid meet">

<g transform="translate(0.000000,801.000000) scale(0.100000,-0.100000)"
fill="#000000" stroke="none">
<path d="M2875 7704 c-756 -310 -1403 -837 -1864 -1519 -254 -376 -439 -778
-561 -1224 -285 -1036 -144 -2186 381 -3114 89 -156 259 -409 272 -404 14 5
307 207 307 211 0 2 -39 66 -86 142 -289 468 -470 981 -550 1559 -26 187 -31
656 -9 865 49 484 170 911 379 1336 297 607 759 1132 1331 1516 l150 101 193
288 c105 159 186 289 180 289 -7 -1 -62 -21 -123 -46z"/>
<path d="M3745 7036 c-485 -161 -892 -407 -1243 -750 -68 -66 -121 -114 -118
-106 28 78 166 544 162 547 -3 3 -38 -22 -79 -55 -328 -269 -617 -601 -819
-946 -39 -66 -86 -146 -104 -176 -130 -219 -278 -642 -343 -980 -50 -258 -56
-329 -56 -680 0 -357 6 -418 61 -704 151 -776 590 -1515 1208 -2035 47 -40 90
-71 95 -69 10 4 234 278 230 282 -2 1 -42 34 -89 73 -118 99 -340 328 -439
452 -79 99 -261 365 -261 381 0 4 62 43 138 85 75 42 138 78 140 80 1 1 -31
67 -72 146 -207 398 -306 751 -337 1200 -30 438 52 913 228 1329 92 218 242
466 405 673 96 121 338 365 458 461 135 107 353 249 505 327 l140 71 178 220
c97 121 177 222 177 224 0 6 12 9 -165 -50z"/>
<path d="M2687 5595 c-200 -251 -383 -604 -472 -912 -148 -509 -135 -1074 37
-1578 215 -635 661 -1159 1271 -1494 l57 -31 58 116 c33 68 52 118 46 121 -6
2 -61 34 -122 71 -412 248 -731 595 -942 1027 -118 239 -187 460 -227 725 -25
161 -25 530 0 690 42 272 116 506 238 750 l77 155 17 187 c22 248 22 248 -38
173z"/>
<path d="M3150 4000 l0 -740 230 0 230 0 1 553 c0 533 1 551 18 512 9 -22 98
-271 197 -553 l179 -512 205 2 205 3 191 543 c105 298 194 545 198 549 3 3 6
-242 6 -545 l0 -552 230 0 230 0 0 740 0 740 -359 0 -360 0 -19 -52 c-10 -29
-86 -248 -168 -485 -82 -238 -151 -433 -154 -433 -3 0 -59 154 -124 343 -65
188 -141 406 -168 485 l-50 142 -359 0 -359 0 0 -740z"/>
<path d="M6039 4719 c-16 -31 -620 -1421 -626 -1442 -5 -16 10 -17 258 -15
l262 3 43 115 42 115 324 3 324 2 44 -120 43 -120 264 0 c149 0 263 4 261 9
-1 5 -145 338 -318 740 l-315 731 -297 0 c-292 0 -297 0 -309 -21z m404 -624
c53 -143 99 -268 102 -277 7 -17 -7 -18 -199 -18 -113 0 -206 4 -206 8 0 7
114 322 195 541 3 8 7 12 9 10 3 -2 47 -121 99 -264z"/>
<path d="M7397 4733 c-4 -3 -7 -337 -7 -740 l0 -734 608 3 c592 4 609 4 687
26 246 69 391 209 450 437 40 155 40 389 -1 548 -38 151 -139 294 -255 364
-77 46 -189 80 -301 92 -106 12 -1170 16 -1181 4z m1018 -347 c163 -50 239
-173 239 -386 0 -193 -57 -311 -181 -372 l-67 -33 -258 -3 -258 -3 0 412 0
412 238 -6 c174 -4 250 -9 287 -21z"/>
<path d="M9330 4000 l0 -740 740 0 741 0 -3 158 -3 157 -492 3 -493 2 0 130 0
130 460 0 460 0 0 155 0 155 -460 0 -460 0 0 135 0 135 495 0 496 0 -3 158 -3
157 -737 3 -738 2 0 -740z"/>
<path d="M11017 4734 c-4 -4 -7 -337 -7 -741 l0 -733 250 0 250 0 0 245 0 245
345 0 c376 0 448 7 552 56 153 73 242 233 243 435 0 106 -14 172 -55 256 -55
113 -139 176 -290 219 -53 16 -128 18 -670 22 -336 2 -614 0 -618 -4z m1051
-329 c46 -28 72 -87 72 -166 0 -84 -22 -127 -80 -156 -42 -22 -55 -23 -297
-23 l-253 0 0 186 0 185 263 -3 c240 -3 265 -5 295 -23z"/>
<path d="M13171 4723 c-15 -29 -631 -1451 -631 -1457 0 -4 118 -5 262 -4 l262
3 28 75 c16 41 35 94 44 118 l16 42 322 0 323 0 43 -120 44 -120 264 0 c207 0
263 3 259 13 -3 6 -146 339 -318 740 l-313 727 -297 0 c-274 0 -299 -1 -308
-17z m408 -642 c56 -150 101 -275 101 -277 0 -2 -93 -4 -206 -4 -192 0 -206 1
-201 18 2 9 46 130 96 267 50 138 94 256 96 264 3 8 7 12 10 10 2 -2 49 -127
104 -278z"/>
</g>
</svg>
